<svg xmlns="http://www.w3.org/2000/svg" style="display:none;">
  <!-- Telegram -->
  <symbol id="icon-telegram" viewBox="0 0 24 24">
    <path fill="#0088cc" d="M9.999 15.199l-.399 5.601c.571 0 .819-.246 
    1.118-.543l2.679-2.571 5.556 4.071c1.018.561 1.743.267 
    2.001-.942l3.627-17.001c.333-1.571-.571-2.181-1.571-1.8L1.571 
    9.6c-1.524.6-1.5 1.467-.267 1.8l5.601 1.743 12.9-8.1-9.806 
    10.156z"/>
  </symbol>

  <!-- Viber -->
  <symbol id="icon-viber" viewBox="0 0 24 24">
    <path fill="#7360f2" d="M17.472 22.222c-3.9 0-7.8-1.2-11.1-3.6-3.3-2.4-5.7-5.7-7.2-9.6C-2.1 
    4.122.3.822 4.2.822c.9 0 1.8.3 2.4.9l2.1 2.1c.6.6.9 1.5.9 
    2.4 0 .9-.3 1.8-.9 2.4l-1.2 1.2c1.5 3 3.9 5.4 6.9 6.9l1.2-1.2c.6-.6 
    1.5-.9 2.4-.9.9 0 1.8.3 2.4.9l2.1 2.1c.6.6.9 1.5.9 2.4 0 3.9-3.3 
    6.3-7.2 6.3z"/>
  </symbol>

  <!-- WhatsApp -->
  <symbol id="icon-whatsapp" viewBox="0 0 24 24">
    <path fill="#25D366" d="M12 0C5.373 0 0 5.373 0 12c0 
    2.118.555 4.168 1.607 5.979L0 24l6.221-1.607C8.032 
    23.445 9.882 24 12 24c6.627 0 12-5.373 
    12-12S18.627 0 12 0zm0 22c-1.9 0-3.7-.5-5.3-1.5l-.4-.2-3.7 
    1 1-3.6-.2-.4C2.5 16.7 2 14.4 2 12 2 6.5 6.5 2 12 
    2s10 4.5 10 10-4.5 10-10 10z"/>
  </symbol>

  <!-- Instagram -->
  <symbol id="icon-instagram" viewBox="0 0 24 24">
    <path fill="#E4405F" d="M12 2.163c3.204 0 3.584.012 
    4.85.07 1.366.062 2.633.334 3.608 1.31.975.975 
    1.248 2.242 1.31 3.608.058 1.266.069 
    1.646.069 4.849s-.012 3.584-.07 4.85c-.062 
    1.366-.334 2.633-1.31 3.608-.975.975-2.242 
    1.248-3.608 1.31-1.266.058-1.646.069-4.85.069s-3.584-.012-4.85-.07c-1.366-.062-2.633-.334-3.608-1.31-.975-.975-1.248-2.242-1.31-3.608-.058-1.266-.069-1.646-.069-4.85s.012-3.584.07-4.85c.062-1.366.334-2.633 
    1.31-3.608.975-.975 2.242-1.248 3.608-1.31 
    1.266-.058 1.646-.069 4.85-.069z"/>
  </symbol>

  <!-- TikTok -->
  <symbol id="icon-tiktok" viewBox="0 0 24 24">
    <path fill="#000000" d="M12 2c1.104 0 2 .896 2 
    2v12c0 2.209-1.791 4-4 4s-4-1.791-4-4c0-1.104.896-2 
    2-2s2 .896 2 2c0 .552.448 1 1 1s1-.448 
    1-1V2zM18 2c1.104 0 2 .896 2 2v4c0 2.209-1.791 
    4-4 4h-2V2h4z"/>
  </symbol>
</svg>